<svg width="48" height="48" viewBox="0 0 48 48" fill="none" xmlns="http://www.w3.org/2000/svg">
<g id="Credit Card">
<path id="Vector" d="M42 7.5H6C4.80653 7.5 3.66193 7.97411 2.81802 8.81802C1.97411 9.66193 1.5 10.8065 1.5 12V15H46.5V12C46.5 10.8065 46.0259 9.66193 45.182 8.81802C44.3381 7.97411 43.1935 7.5 42 7.5Z" fill="#F57021"/>
<path id="Vector_2" d="M46.5 18H1.5V22.5H46.5V18Z" fill="#F57021"/>
<path id="Vector_3" d="M37.5 34.5C38.3284 34.5 39 33.8284 39 33C39 32.1716 38.3284 31.5 37.5 31.5C36.6716 31.5 36 32.1716 36 33C36 33.8284 36.6716 34.5 37.5 34.5Z" fill="#F57021"/>
<path id="Vector_4" d="M1.5 36C1.5 37.1935 1.97411 38.3381 2.81802 39.182C3.66193 40.0259 4.80653 40.5 6 40.5H42C43.1935 40.5 44.3381 40.0259 45.182 39.182C46.0259 38.3381 46.5 37.1935 46.5 36V25.5H1.5V36ZM37.5 28.5C38.39 28.5 39.26 28.7639 40.0001 29.2584C40.7401 29.7529 41.3169 30.4557 41.6575 31.2779C41.9981 32.1002 42.0872 33.005 41.9135 33.8779C41.7399 34.7508 41.3113 35.5526 40.682 36.182C40.0526 36.8113 39.2508 37.2399 38.3779 37.4135C37.505 37.5872 36.6002 37.4981 35.7779 37.1575C34.9557 36.8169 34.2529 36.2401 33.7584 35.5001C33.2639 34.76 33 33.89 33 33C33 31.8065 33.4741 30.6619 34.318 29.818C35.1619 28.9741 36.3065 28.5 37.5 28.5ZM9.21 31.5H12.21C12.6078 31.5 12.9894 31.658 13.2707 31.9393C13.552 32.2206 13.71 32.6022 13.71 33C13.71 33.3978 13.552 33.7794 13.2707 34.0607C12.9894 34.342 12.6078 34.5 12.21 34.5H9.21C8.81218 34.5 8.43064 34.342 8.14934 34.0607C7.86804 33.7794 7.71 33.3978 7.71 33C7.71 32.6022 7.86804 32.2206 8.14934 31.9393C8.43064 31.658 8.81218 31.5 9.21 31.5Z" fill="#F57021"/>
</g>
</svg>
