<svg width="24" height="24" viewBox="0 0 24 24" fill="none" xmlns="http://www.w3.org/2000/svg">
<g clip-path="url(#clip0_172_5613)">
<path d="M11.5141 2.14196L10.2541 1.38696L10.0141 2.83596C9.63209 5.12396 8.06909 7.24996 6.34509 8.74396C2.97009 11.67 2.23109 14.85 3.27609 17.475C4.27609 19.987 6.81409 21.707 9.39009 21.994L9.98609 22.06C8.51209 21.159 7.56609 19.054 7.89609 17.481C8.22209 15.935 9.33409 14.487 11.4701 13.151L12.5471 12.479L12.9491 13.684C13.1861 14.396 13.5961 14.968 14.0131 15.549C14.2131 15.829 14.4161 16.112 14.6021 16.413C15.2451 17.458 15.4151 18.62 15.0001 19.773C14.6221 20.821 13.9991 21.645 13.1401 22.102L14.1101 21.994C16.5281 21.725 18.3031 20.898 19.4561 19.515C20.5991 18.144 21.0001 16.379 21.0001 14.5C21.0001 12.75 20.2811 10.946 19.4331 9.44496C18.4391 7.68696 17.1421 6.22696 15.7261 4.81196C15.4811 5.30196 15.5001 5.49996 14.9961 6.28696C14.3419 4.54876 13.1133 3.08629 11.5141 2.14196Z" fill="url(#paint0_linear_172_5613)"/>
</g>
<defs>
<linearGradient id="paint0_linear_172_5613" x1="11.9183" y1="1.38696" x2="11.9183" y2="22.102" gradientUnits="userSpaceOnUse">
<stop stop-color="#FFC733"/>
<stop offset="1" stop-color="#F57021"/>
</linearGradient>
<clipPath id="clip0_172_5613">
<rect width="24" height="24" fill="white"/>
</clipPath>
</defs>
</svg>
