<svg width="24" height="24" viewBox="0 0 24 24" fill="none" xmlns="http://www.w3.org/2000/svg">
<g id="medal">
<path id="Vector" fill-rule="evenodd" clip-rule="evenodd" d="M22.2247 2.91367L17.7267 10.721C17.698 10.779 17.6551 10.8289 17.602 10.866C17.5489 10.9031 17.4874 10.9263 17.423 10.9334C17.3586 10.9404 17.2935 10.9312 17.2336 10.9064C17.1737 10.8817 17.121 10.8423 17.0804 10.7919C16.2455 9.75455 15.1112 8.99973 13.832 8.63017V8.62905C13.7757 8.61299 13.7238 8.58434 13.6803 8.54525C13.6368 8.50617 13.6027 8.45768 13.5807 8.40346C13.5587 8.34925 13.5493 8.29074 13.5533 8.23236C13.5572 8.17398 13.5744 8.11728 13.6036 8.06655L16.823 2.49142C16.8561 2.42939 16.9056 2.37761 16.966 2.34168C17.0265 2.30575 17.0956 2.28705 17.1659 2.28761L21.8939 2.33673C21.9612 2.33726 22.0271 2.35539 22.0852 2.38933C22.1432 2.42326 22.1914 2.47182 22.2249 2.53016C22.2583 2.58851 22.2759 2.6546 22.2759 2.72185C22.2758 2.7891 22.2582 2.85536 22.2247 2.91367ZM7.17085 2.52255L10.3771 8.07555C10.4094 8.12592 10.4296 8.18312 10.436 8.24262C10.4424 8.30212 10.4349 8.3623 10.4141 8.41841C10.3933 8.47452 10.3597 8.52502 10.316 8.56594C10.2723 8.60685 10.2198 8.63706 10.1624 8.65417C9.5297 8.84536 8.93018 9.13278 8.38491 9.50636C7.84011 9.8793 7.35525 10.333 6.94698 10.8519C6.90864 10.9032 6.85813 10.9443 6.8 10.9712C6.74186 10.9982 6.67793 11.0103 6.61395 11.0065C6.54997 11.0026 6.48796 10.9829 6.4335 10.9491C6.37904 10.9153 6.33384 10.8685 6.30198 10.8129L1.77385 2.91367C1.7404 2.85509 1.72292 2.78876 1.72315 2.7213C1.72338 2.65385 1.74131 2.58764 1.77515 2.52928C1.809 2.47093 1.85757 2.42249 1.91601 2.3888C1.97445 2.35511 2.04071 2.33735 2.10816 2.3373L6.81348 2.33148C6.88478 2.32731 6.95584 2.34301 7.01874 2.37684C7.08164 2.41068 7.13391 2.46132 7.16973 2.52311" fill="#431C10"/>
<path id="Vector_2" fill-rule="evenodd" clip-rule="evenodd" d="M12.0377 7.9917C13.3945 7.9917 14.7209 8.39406 15.8491 9.14789C16.9773 9.90173 17.8567 10.9732 18.3759 12.2268C18.8952 13.4803 19.031 14.8597 18.7663 16.1905C18.5016 17.5213 17.8482 18.7437 16.8887 19.7032C15.9293 20.6626 14.7069 21.316 13.3761 21.5808C12.0453 21.8455 10.6659 21.7096 9.41231 21.1904C8.15873 20.6711 7.08727 19.7918 6.33344 18.6636C5.5796 17.5354 5.17725 16.209 5.17725 14.8521C5.17725 13.0326 5.90004 11.2877 7.18662 10.0011C8.4732 8.71449 10.2182 7.9917 12.0377 7.9917Z" fill="#FCB912"/>
<path id="Vector_3" fill-rule="evenodd" clip-rule="evenodd" d="M12.0373 7.9917C11.9582 7.9917 11.8798 7.99489 11.8013 7.9977C13.578 8.05935 15.2614 8.80851 16.4965 10.0872C17.7317 11.366 18.422 13.0743 18.422 14.8521C18.422 16.63 17.7317 18.3383 16.4965 19.617C15.2614 20.8958 13.578 21.6449 11.8013 21.7066C11.8798 21.7092 11.9582 21.7126 12.0373 21.7126C13.8568 21.7126 15.6018 20.9898 16.8884 19.7032C18.175 18.4166 18.8978 16.6716 18.8978 14.8521C18.8978 13.0326 18.175 11.2877 16.8884 10.0011C15.6018 8.71449 13.8568 7.9917 12.0373 7.9917Z" fill="#F2A31E"/>
<path id="Vector_4" d="M15.8047 11.391C15.0039 10.5902 13.9503 10.0918 12.8233 9.98081C11.6963 9.8698 10.5656 10.153 9.62403 10.7821C8.68242 11.4113 7.98808 12.3474 7.65933 13.4311C7.33058 14.5148 7.38775 15.679 7.8211 16.7252C8.25445 17.7715 9.03718 18.6351 10.0359 19.169C11.0346 19.7028 12.1876 19.8739 13.2983 19.653C14.409 19.432 15.4087 18.8328 16.1271 17.9575C16.8456 17.0821 17.2383 15.9847 17.2383 14.8522C17.2391 14.2093 17.1129 13.5725 16.8669 12.9785C16.6209 12.3845 16.2599 11.845 15.8047 11.391ZM12.3434 9.18409C13.6548 9.18404 14.9256 9.6387 15.9394 10.4706C16.9532 11.3025 17.6471 12.4602 17.903 13.7464C18.1589 15.0326 17.9609 16.3677 17.3427 17.5243C16.7246 18.6808 15.7245 19.5873 14.5129 20.0892C13.3014 20.5911 11.9533 20.6573 10.6983 20.2767C9.44341 19.896 8.35928 19.092 7.63067 18.0017C6.90207 16.9113 6.57408 15.602 6.70258 14.297C6.83109 12.9919 7.40814 11.7717 8.33541 10.8444C8.86116 10.3173 9.48589 9.8992 10.1737 9.61427C10.8615 9.32934 11.5989 9.18314 12.3434 9.18409Z" fill="#F2A31E"/>
<path id="Vector_5" d="M12.7722 12.0014L13.2991 13.6337L15.0189 13.6304C15.1135 13.6304 15.2058 13.6605 15.2823 13.7162C15.3589 13.7719 15.4158 13.8504 15.4449 13.9405C15.4741 14.0306 15.474 14.1276 15.4446 14.2176C15.4152 14.3076 15.358 14.386 15.2814 14.4415V14.4424L13.8899 15.4502L14.4243 17.0841C14.4538 17.177 14.4523 17.2769 14.4201 17.3689C14.388 17.4609 14.3268 17.54 14.2458 17.5942C14.1648 17.6484 14.0684 17.6749 13.9711 17.6697C13.8738 17.6644 13.7808 17.6277 13.7062 17.565L12.3442 16.5713L10.9548 17.5847C10.8783 17.6405 10.7861 17.6707 10.6915 17.6708C10.5968 17.6709 10.5045 17.641 10.4279 17.5854C10.3513 17.5298 10.2943 17.4514 10.265 17.3613C10.2358 17.2713 10.2358 17.1743 10.2652 17.0843H10.264L10.7982 15.4502L9.40585 14.4426C9.32719 14.385 9.26935 14.3034 9.24105 14.2101C9.21276 14.1168 9.21552 14.0169 9.24893 13.9253C9.28235 13.8337 9.3446 13.7554 9.42633 13.7023C9.50805 13.6491 9.60483 13.624 9.7021 13.6305L11.3896 13.6339L11.9176 11.9985C11.9467 11.9078 12.004 11.8287 12.0811 11.7727C12.1582 11.7167 12.2511 11.6867 12.3464 11.687C12.4417 11.6873 12.5344 11.718 12.6111 11.7746C12.6878 11.8311 12.7445 11.9106 12.773 12.0015" fill="#F2A31E"/>
<path id="Vector_6" d="M15.4985 11.391C14.6978 10.5902 13.6441 10.0918 12.5171 9.98081C11.3901 9.8698 10.2595 10.153 9.31788 10.7821C8.37627 11.4113 7.68193 12.3474 7.35318 13.4311C7.02443 14.5148 7.0816 15.679 7.51495 16.7252C7.9483 17.7715 8.73102 18.6351 9.72975 19.169C10.7285 19.7028 11.8814 19.8739 12.9921 19.653C14.1028 19.432 15.1025 18.8328 15.821 17.9575C16.5394 17.0821 16.9321 15.9847 16.9321 14.8522C16.933 14.2093 16.8068 13.5725 16.5608 12.9785C16.3147 12.3845 15.9537 11.845 15.4985 11.391ZM12.0373 9.18409C13.3487 9.18404 14.6195 9.6387 15.6332 10.4706C16.647 11.3025 17.3409 12.4602 17.5968 13.7464C17.8527 15.0326 17.6547 16.3677 17.0366 17.5243C16.4184 18.6808 15.4183 19.5873 14.2068 20.0892C12.9952 20.5911 11.6471 20.6573 10.3922 20.2767C9.13726 19.896 8.05312 19.092 7.32452 18.0017C6.59592 16.9113 6.26792 15.602 6.39643 14.297C6.52493 12.9919 7.10198 11.7717 8.02926 10.8444C8.555 10.3172 9.17973 9.89919 9.86756 9.61425C10.5554 9.32932 11.2927 9.18313 12.0373 9.18409Z" fill="#FCF8CF"/>
<path id="Vector_7" d="M12.4661 12.001L12.9929 13.6334L14.7127 13.63C14.8074 13.6301 14.8996 13.6601 14.9762 13.7158C15.0527 13.7715 15.1096 13.8501 15.1388 13.9402C15.1679 14.0302 15.1678 14.1272 15.1384 14.2172C15.109 14.3072 15.0519 14.3856 14.9752 14.4411V14.4421L13.5838 15.4499L14.1181 17.0838C14.1477 17.1767 14.1463 17.2767 14.1141 17.3687C14.0819 17.4608 14.0207 17.5399 13.9397 17.5941C13.8586 17.6483 13.7622 17.6748 13.6648 17.6695C13.5675 17.6642 13.4745 17.6274 13.3998 17.5647L12.0373 16.5711L10.6479 17.5846C10.5714 17.6402 10.4792 17.6702 10.3846 17.6703C10.29 17.6704 10.1978 17.6405 10.1213 17.5849C10.0447 17.5293 9.98767 17.451 9.95839 17.361C9.92911 17.271 9.92907 17.1741 9.95826 17.0841H9.95714L10.4923 15.4499L9.0997 14.4423C9.02104 14.3847 8.9632 14.3031 8.9349 14.2098C8.9066 14.1165 8.90937 14.0165 8.94278 13.9249C8.97619 13.8334 9.03845 13.7551 9.12017 13.7019C9.2019 13.6488 9.29868 13.6236 9.39595 13.6302L11.0834 13.6336L11.6114 11.9982C11.6405 11.9074 11.6978 11.8283 11.7748 11.7723C11.8519 11.7162 11.9448 11.6862 12.0401 11.6865C12.1354 11.6869 12.2282 11.7175 12.3048 11.7741C12.3815 11.8307 12.4382 11.9102 12.4666 12.0012" fill="#FCF8CF"/>
</g>
</svg>
