<svg width="24" height="24" viewBox="0 0 24 24" fill="none" xmlns="http://www.w3.org/2000/svg">
<path d="M21 7.01197V12.082L18.249 11.7782L12.0495 11.092V6.02197L18.249 6.70747L21 7.01197ZM3 16.555V11.485L5.751 11.7895L11.9505 12.4757V17.5457L5.751 16.8602L3 16.555Z" fill="#FF9500"/>
<path d="M16.4407 19.669C16.1257 19.8482 14.0309 19.1665 13.6784 19.2527C13.3379 19.3352 11.8664 20.8825 11.5162 20.863C11.1539 20.8435 9.76119 19.138 9.41769 19.0195C9.08619 18.9055 7.01169 19.411 6.72819 19.2062C6.43344 18.9932 6.18369 16.8062 5.95869 16.5205C5.74194 16.2452 3.72369 15.5492 3.59619 15.223C3.46269 14.8855 4.43544 12.9092 4.40019 12.5477C4.36719 12.199 3.04494 10.5227 3.11394 10.1785C3.18519 9.82221 5.07144 8.68596 5.23719 8.36346C5.39769 8.05221 5.19219 5.92596 5.43594 5.67471C5.68794 5.41371 7.88844 5.47746 8.20344 5.29596C8.50719 5.12046 9.48294 3.22146 9.82344 3.14121C10.1774 3.05796 11.9947 4.30146 12.3577 4.31871C12.7072 4.33521 14.5552 3.26496 14.8852 3.38196C15.2279 3.50346 16.0844 5.53146 16.3799 5.74221C16.6657 5.94546 18.7987 6.04446 19.0132 6.32121C19.2359 6.60846 18.8594 8.77821 18.9944 9.11496C19.1249 9.44046 20.8657 10.6765 20.8964 11.026C20.9287 11.3875 19.4392 13.009 19.3702 13.366C19.3042 13.7095 20.1007 15.691 19.9379 16.0015C19.7692 16.3232 17.6392 16.882 17.3887 17.1445C17.1472 17.3987 16.7452 19.4957 16.4407 19.669Z" fill="#A80E05"/>
<path d="M15.7658 18.501C15.4981 18.6532 13.7228 18.0757 13.4236 18.1485C13.1348 18.2182 11.8876 19.53 11.5906 19.5135C11.2831 19.4977 10.1018 18.0517 9.81156 17.9512C9.53031 17.8537 7.77156 18.2827 7.53156 18.1087C7.28106 17.9287 7.06881 16.074 6.87906 15.8317C6.69531 15.5985 4.98381 15.0082 4.87506 14.7322C4.76256 14.445 5.58756 12.7702 5.55756 12.4635C5.52906 12.168 4.40856 10.746 4.46706 10.455C4.52706 10.1535 6.12606 9.18974 6.26706 8.91599C6.40356 8.65199 6.22881 6.85049 6.43506 6.63599C6.64956 6.41549 8.51556 6.46949 8.78256 6.31499C9.03906 6.16649 9.86706 4.55624 10.1558 4.48874C10.4558 4.41824 11.9963 5.47199 12.3038 5.48624C12.6008 5.50124 14.1676 4.59374 14.4473 4.69274C14.7376 4.79549 15.4636 6.51524 15.7148 6.69374C15.9563 6.86624 17.7646 6.95024 17.9468 7.18499C18.1358 7.42799 17.8163 9.26774 17.9311 9.55349C18.0413 9.82949 19.5173 10.8772 19.5436 11.1735C19.5706 11.4802 18.3083 12.855 18.2498 13.1572C18.1936 13.4497 18.8686 15.129 18.7306 15.3922C18.5881 15.6645 16.7821 16.1385 16.5698 16.3612C16.3643 16.5765 16.0246 18.3547 15.7658 18.501Z" fill="#D31206"/>
<path d="M3.01074 11.4779V16.5726L5.77524 15.8856L18.2357 12.7881L21.0002 12.1011V7.00488L18.2357 7.69188L5.77524 10.7901L3.01074 11.4779Z" fill="#FFCC00"/>
<path d="M6.847 15.1293C6.59908 15.1957 6.36987 15.1967 6.15937 15.1324C5.94887 15.068 5.78134 14.9386 5.65678 14.7442C5.60859 14.6674 5.56641 14.5873 5.53024 14.5038C5.4932 14.4171 5.45916 14.3158 5.4281 14.1999C5.39704 14.0839 5.3763 13.9808 5.36589 13.8904C5.35461 13.7968 5.35064 13.7047 5.35396 13.6141C5.36464 13.3835 5.44503 13.1876 5.59514 13.0266C5.74525 12.8656 5.94427 12.7519 6.19219 12.6855C6.44011 12.6191 6.66932 12.618 6.87982 12.6824C7.09032 12.7468 7.25785 12.8762 7.38241 13.0706C7.4306 13.1474 7.47321 13.2291 7.51024 13.3158C7.54642 13.3993 7.58003 13.499 7.61109 13.6149C7.64215 13.7308 7.66332 13.8356 7.67459 13.9292C7.68501 14.0196 7.68855 14.1101 7.68523 14.2007C7.67455 14.4313 7.59416 14.6271 7.44405 14.7881C7.29394 14.9491 7.09492 15.0629 6.847 15.1293ZM6.6943 14.5594C6.88104 14.5093 6.97935 14.3933 6.98923 14.2112C6.99066 14.1521 6.98726 14.0944 6.97904 14.0379C6.96995 13.9782 6.95203 13.8985 6.92528 13.7987C6.89854 13.6989 6.87461 13.6225 6.85351 13.5694C6.83154 13.5132 6.80517 13.4599 6.77441 13.4095C6.67481 13.2567 6.53164 13.2053 6.34489 13.2554C6.15815 13.3054 6.05984 13.4215 6.04996 13.6036C6.04853 13.6626 6.05236 13.722 6.06145 13.7817C6.06968 13.8381 6.08716 13.9163 6.11391 14.0161C6.14065 14.1159 6.16501 14.1939 6.18698 14.2502C6.20808 14.3032 6.23402 14.3549 6.26478 14.4053C6.36438 14.5581 6.50755 14.6094 6.6943 14.5594ZM8.55343 14.6151C8.52124 14.6237 8.50082 14.6119 8.4922 14.5797L8.01985 12.8169C8.01468 12.7976 8.00243 12.7905 7.98311 12.7957L7.83822 12.8345C7.80602 12.8432 7.78561 12.8314 7.77698 12.7992L7.66957 12.3983C7.66095 12.3661 7.67273 12.3457 7.70493 12.3371L7.84982 12.2983C7.86914 12.2931 7.87621 12.2808 7.87103 12.2615L7.84127 12.1504C7.76448 11.8639 7.77527 11.6401 7.87364 11.4792C7.97522 11.3174 8.16607 11.199 8.44619 11.1239L8.71182 11.0527C8.74402 11.0441 8.76443 11.0559 8.77306 11.0881L8.8947 11.5421C8.90333 11.5743 8.89154 11.5947 8.85935 11.6033L8.70963 11.6434C8.60338 11.6719 8.53729 11.7086 8.51136 11.7535C8.48457 11.7952 8.48455 11.8659 8.51129 11.9657L8.54235 12.0816C8.54753 12.101 8.55977 12.108 8.57909 12.1029L8.96063 12.0006C8.99283 11.992 9.01324 12.0038 9.02187 12.036L9.12928 12.4368C9.13791 12.469 9.12612 12.4895 9.09392 12.4981L8.71238 12.6003C8.69307 12.6055 8.68599 12.6177 8.69117 12.6371L9.16352 14.3999C9.17214 14.4321 9.16036 14.4525 9.12816 14.4611L8.55343 14.6151ZM10.19 14.1766C10.1578 14.1852 10.1374 14.1734 10.1288 14.1412L9.65646 12.3784C9.65128 12.3591 9.63903 12.352 9.61971 12.3572L9.47482 12.396C9.44263 12.4046 9.42221 12.3929 9.41359 12.3607L9.30618 11.9598C9.29755 11.9276 9.30933 11.9072 9.34153 11.8986L9.48642 11.8597C9.50574 11.8546 9.51281 11.8423 9.50763 11.823L9.47787 11.7119C9.40109 11.4254 9.41188 11.2016 9.51024 11.0407C9.61182 10.8789 9.80267 10.7604 10.0828 10.6854L10.3484 10.6142C10.3806 10.6056 10.401 10.6174 10.4097 10.6496L10.5313 11.1035C10.5399 11.1357 10.5281 11.1561 10.4959 11.1648L10.3462 11.2049C10.24 11.2334 10.1739 11.2701 10.148 11.315C10.1212 11.3566 10.1211 11.4274 10.1479 11.5272L10.179 11.6431C10.1841 11.6624 10.1964 11.6695 10.2157 11.6643L10.5972 11.5621C10.6294 11.5535 10.6498 11.5653 10.6585 11.5975L10.7659 11.9983C10.7745 12.0305 10.7627 12.0509 10.7305 12.0596L10.349 12.1618C10.3297 12.167 10.3226 12.1792 10.3278 12.1985L10.8001 13.9613C10.8087 13.9935 10.797 14.014 10.7648 14.0226L10.19 14.1766ZM12.6959 13.5621C12.4287 13.6337 12.191 13.6352 11.9829 13.5668C11.7747 13.4983 11.6084 13.3669 11.4838 13.1725C11.4382 13.1054 11.3957 13.0305 11.3563 12.9478C11.3202 12.8644 11.2857 12.7615 11.2529 12.6391C11.2201 12.5167 11.1985 12.4104 11.1881 12.32C11.1768 12.2264 11.1741 12.1391 11.1801 12.0582C11.1907 11.8275 11.2679 11.6326 11.4116 11.4733C11.5576 11.3099 11.7562 11.1946 12.0073 11.1273C12.2681 11.0574 12.4994 11.0576 12.7011 11.1278C12.906 11.1971 13.0699 11.3257 13.1927 11.5137C13.2159 11.5489 13.2384 11.5877 13.2602 11.6302C13.281 11.6695 13.302 11.7156 13.3231 11.7686C13.3442 11.8216 13.3663 11.8847 13.3894 11.9579C13.4116 12.0279 13.4361 12.1128 13.4628 12.2126C13.4714 12.2448 13.458 12.2656 13.4226 12.2751L12.0075 12.6543C11.9882 12.6595 11.9812 12.6717 11.9863 12.691C12.0025 12.7385 12.0238 12.7794 12.0502 12.8137C12.1101 12.9081 12.1887 12.9698 12.2862 12.9989C12.3837 13.028 12.4937 13.0261 12.616 12.9934C12.7319 12.9623 12.8286 12.9174 12.9061 12.8587C12.9826 12.7968 13.0461 12.7246 13.0965 12.642C13.1194 12.6117 13.142 12.6057 13.1641 12.6239L13.5631 12.838C13.5949 12.8536 13.6025 12.8757 13.586 12.9043C13.5053 13.0536 13.3906 13.1861 13.2422 13.3018C13.0938 13.4175 12.9117 13.5043 12.6959 13.5621ZM12.6599 11.9981C12.6793 11.9929 12.6863 11.9807 12.6811 11.9613C12.6717 11.9259 12.6602 11.8962 12.6469 11.8722C12.6359 11.8441 12.6238 11.818 12.6104 11.794C12.5631 11.7204 12.498 11.6705 12.4151 11.6444C12.3354 11.6175 12.2472 11.6169 12.1506 11.6428C12.054 11.6687 11.9764 11.7137 11.9176 11.7777C11.8621 11.8409 11.8322 11.9162 11.828 12.0036C11.8285 12.0311 11.8294 12.0602 11.8307 12.0909C11.8344 12.1175 11.841 12.1485 11.8505 12.1839C11.8556 12.2033 11.8679 12.2103 11.8872 12.2051L12.6599 11.9981ZM14.2771 13.0814C14.245 13.0901 14.2245 13.0783 14.2159 13.0461L13.6155 10.8051C13.6068 10.7729 13.6186 10.7525 13.6508 10.7439L14.2304 10.5886C14.2626 10.58 14.283 10.5918 14.2916 10.624L14.3447 10.822L14.3495 10.8207C14.3792 10.7126 14.4387 10.6191 14.5279 10.5399C14.6163 10.4576 14.7329 10.397 14.8778 10.3582C14.9551 10.3375 15.0326 10.3305 15.1103 10.3373C15.1904 10.34 15.2622 10.357 15.3258 10.3883C15.3535 10.4015 15.3644 10.4228 15.3584 10.452L15.22 11.0171C15.2091 11.0407 15.1874 11.05 15.155 11.0449C15.0192 11.0019 14.897 10.9966 14.7884 11.0292C14.6646 11.0693 14.5853 11.1405 14.5506 11.243C14.516 11.3455 14.5198 11.4756 14.5621 11.6334L14.8921 12.8649C14.9007 12.8971 14.8889 12.9175 14.8567 12.9261L14.2771 13.0814ZM17.1699 12.3633C16.9252 12.4288 16.7048 12.4499 16.5088 12.4265C16.3151 12.3991 16.1489 12.3521 16.0103 12.2857C15.9818 12.2692 15.9757 12.2467 15.9922 12.2181L16.2117 11.7814C16.2258 11.757 16.2484 11.7509 16.2793 11.7633C16.4039 11.8162 16.535 11.8484 16.6727 11.8598C16.8103 11.8712 16.9403 11.8606 17.0627 11.8278C17.185 11.795 17.2696 11.7499 17.3163 11.6925C17.3663 11.6343 17.3826 11.573 17.3654 11.5086C17.3507 11.4538 17.3165 11.4164 17.2628 11.3963C17.2115 11.3721 17.1164 11.3716 16.9778 11.395L16.7092 11.4359C16.4544 11.4766 16.245 11.455 16.0811 11.3713C15.9204 11.2867 15.8115 11.1381 15.7546 10.9256C15.6925 10.6938 15.7274 10.4894 15.8595 10.3125C15.9907 10.1325 16.2092 10.0014 16.5151 9.91947C16.7147 9.86598 16.9024 9.84504 17.078 9.85664C17.2537 9.86824 17.4075 9.90123 17.5394 9.95561C17.5679 9.97211 17.576 9.99582 17.5636 10.0268L17.3824 10.4325C17.3692 10.4602 17.3475 10.4694 17.3174 10.4602C17.2231 10.4303 17.1165 10.4123 16.9975 10.4062C16.8777 10.3969 16.7566 10.4086 16.6343 10.4414C16.5344 10.4682 16.4651 10.5057 16.4263 10.5541C16.3875 10.6024 16.3759 10.6556 16.3914 10.7135C16.4061 10.7683 16.4387 10.8061 16.4891 10.8271C16.5388 10.8449 16.6313 10.8425 16.7668 10.82L17.0305 10.7804C17.3143 10.732 17.5326 10.7546 17.6854 10.8482C17.8414 10.941 17.9457 11.0856 17.9983 11.282C18.0598 11.5244 18.0202 11.7437 17.8796 11.9402C17.7413 12.1325 17.5048 12.2735 17.1699 12.3633Z" fill="white"/>
</svg>
