<svg width="32" height="32" viewBox="0 0 32 32" fill="none" xmlns="http://www.w3.org/2000/svg">
<g id="play-square">
<g id="Icon">
<path d="M12.6667 11.9538C12.6667 11.3174 12.6667 10.9992 12.7997 10.8216C12.9156 10.6668 13.093 10.5699 13.2858 10.5561C13.5072 10.5403 13.7748 10.7124 14.3101 11.0565L20.6043 15.1027C21.0688 15.4014 21.301 15.5507 21.3813 15.7405C21.4514 15.9064 21.4514 16.0936 21.3813 16.2595C21.301 16.4493 21.0688 16.5986 20.6043 16.8973L14.3101 20.9435C13.7748 21.2876 13.5072 21.4597 13.2858 21.4439C13.093 21.4301 12.9156 21.3332 12.7997 21.1784C12.6667 21.0008 12.6667 20.6826 12.6667 20.0462V11.9538Z" stroke="url(#paint0_linear_214_13069)" stroke-width="2" stroke-linecap="round" stroke-linejoin="round"/>
<path d="M4 10.4C4 8.15979 4 7.03969 4.43597 6.18404C4.81947 5.43139 5.43139 4.81947 6.18404 4.43597C7.03969 4 8.15979 4 10.4 4H21.6C23.8402 4 24.9603 4 25.816 4.43597C26.5686 4.81947 27.1805 5.43139 27.564 6.18404C28 7.03969 28 8.15979 28 10.4V21.6C28 23.8402 28 24.9603 27.564 25.816C27.1805 26.5686 26.5686 27.1805 25.816 27.564C24.9603 28 23.8402 28 21.6 28H10.4C8.15979 28 7.03969 28 6.18404 27.564C5.43139 27.1805 4.81947 26.5686 4.43597 25.816C4 24.9603 4 23.8402 4 21.6V10.4Z" stroke="url(#paint1_linear_214_13069)" stroke-width="2" stroke-linecap="round" stroke-linejoin="round"/>
</g>
</g>
<defs>
<linearGradient id="paint0_linear_214_13069" x1="16" y1="4" x2="16" y2="28" gradientUnits="userSpaceOnUse">
<stop stop-color="#964f82"/>
<stop offset="1" stop-color="#F57021"/>
</linearGradient>
<linearGradient id="paint1_linear_214_13069" x1="16" y1="4" x2="16" y2="28" gradientUnits="userSpaceOnUse">
<stop stop-color="#964f82"/>
<stop offset="1" stop-color="#F57021"/>
</linearGradient>
</defs>
</svg>
