<svg width="19" height="15" viewBox="0 0 19 15" fill="none" xmlns="http://www.w3.org/2000/svg">
<g id="DinersClub">
<path id="Vector" d="M11.045 14.4998C14.9425 14.5187 18.5 11.292 18.5 7.36689C18.5 3.07486 14.9425 0.107774 11.045 0.109376H7.69063C3.74666 0.107774 0.5 3.07566 0.5 7.36689C0.5 11.2928 3.74666 14.5187 7.69063 14.4998H11.045Z" fill="#0079BE"/>
<path id="Vector_2" d="M7.70642 0.704102C4.10209 0.705303 1.18187 3.65317 1.18066 7.29154C1.18187 10.9295 4.10209 13.8774 7.70642 13.8786C11.3111 13.8774 14.2326 10.9295 14.233 7.29154C14.2326 3.65317 11.3115 0.705303 7.70642 0.704102ZM3.5702 7.29154C3.56944 6.45031 3.82247 5.62843 4.29623 4.9333C4.76999 4.23817 5.44244 3.70213 6.22568 3.39523V11.1874C5.44237 10.8808 4.76985 10.3448 4.29607 9.64973C3.82228 8.95464 3.5693 8.13274 3.5702 7.29154ZM9.18676 11.189V3.39483C9.97059 3.70129 10.6436 4.23728 11.1177 4.93265C11.5918 5.62801 11.8449 6.45033 11.8438 7.29194C11.8447 8.13351 11.5916 8.95575 11.1175 9.65108C10.6434 10.3464 9.9705 10.8824 9.18676 11.189Z" fill="white"/>
<path id="Vector_3" d="M11.045 14.4998C14.9425 14.5187 18.5 11.292 18.5 7.36689C18.5 3.07486 14.9425 0.107774 11.045 0.109376H7.69063C3.74666 0.107774 0.5 3.07566 0.5 7.36689C0.5 11.2928 3.74666 14.5187 7.69063 14.4998H11.045Z" fill="#0079BE"/>
<path id="Vector_4" d="M7.70642 0.704102C4.10209 0.705303 1.18187 3.65317 1.18066 7.29154C1.18187 10.9295 4.10209 13.8774 7.70642 13.8786C11.3111 13.8774 14.2326 10.9295 14.233 7.29154C14.2326 3.65317 11.3115 0.705303 7.70642 0.704102ZM3.5702 7.29154C3.56944 6.45031 3.82247 5.62843 4.29623 4.9333C4.76999 4.23817 5.44244 3.70213 6.22568 3.39523V11.1874C5.44237 10.8808 4.76985 10.3448 4.29607 9.64973C3.82228 8.95464 3.5693 8.13274 3.5702 7.29154ZM9.18676 11.189V3.39483C9.97059 3.70129 10.6436 4.23728 11.1177 4.93265C11.5918 5.62801 11.8449 6.45033 11.8438 7.29194C11.8447 8.13351 11.5916 8.95575 11.1175 9.65108C10.6434 10.3464 9.9705 10.8824 9.18676 11.189Z" fill="white"/>
</g>
</svg>
