<svg width="23" height="15" viewBox="0 0 23 15" fill="none" xmlns="http://www.w3.org/2000/svg">
<g id="Maestro">
<path id="Left" d="M14.0948 7.12711C14.0948 10.9395 11.0397 14.0301 7.27104 14.0301C3.50237 14.0301 0.447266 10.9395 0.447266 7.12711C0.447266 3.31469 3.50237 0.224121 7.27104 0.224121C11.0397 0.224121 14.0948 3.31469 14.0948 7.12711Z" fill="#ED0006"/>
<path id="Right" d="M22.9473 7.12711C22.9473 10.9395 19.8922 14.0301 16.1236 14.0301C12.3549 14.0301 9.2998 10.9395 9.2998 7.12711C9.2998 3.31469 12.3549 0.224121 16.1236 0.224121C19.8922 0.224121 22.9473 3.31469 22.9473 7.12711Z" fill="#0099DF"/>
<path id="Middle" fill-rule="evenodd" clip-rule="evenodd" d="M11.6973 1.87305C13.1645 3.13918 14.0948 5.02317 14.0948 7.12697C14.0948 9.23077 13.1645 11.1148 11.6973 12.3809C10.2301 11.1148 9.2998 9.23077 9.2998 7.12697C9.2998 5.02317 10.2301 3.13918 11.6973 1.87305Z" fill="#6C6BBD"/>
</g>
</svg>
