<svg width="24" height="24" viewBox="0 0 24 24" fill="none" xmlns="http://www.w3.org/2000/svg">
<path fill-rule="evenodd" clip-rule="evenodd" d="M23.9997 11.9997C23.9997 18.5995 18.5999 23.9994 12.0002 23.9994C5.40049 23.9994 0.000732422 18.5995 0.000732422 11.9997C0.000732422 5.39987 5.40049 0 12.0002 0C18.5999 0 23.9997 5.39987 23.9997 11.9997Z" fill="url(#paint0_radial_32_2477)"/>
<path fill-rule="evenodd" clip-rule="evenodd" d="M23.9997 11.9997C23.9997 18.5995 18.5999 23.9994 12.0002 23.9994C5.40049 23.9994 0.000732422 18.5995 0.000732422 11.9997C0.000732422 5.39987 5.40049 0 12.0002 0C18.5999 0 23.9997 5.39987 23.9997 11.9997Z" fill="url(#paint1_radial_32_2477)"/>
<path fill-rule="evenodd" clip-rule="evenodd" d="M14.5498 8.8497C14.3998 8.39971 9.6 8.39971 9.45 8.8497C9.30001 9.29969 10.35 9.89967 11.9999 9.89967C13.6498 9.89967 14.6998 9.29969 14.5498 8.8497Z" fill="url(#paint2_linear_32_2477)"/>
<path fill-rule="evenodd" clip-rule="evenodd" d="M14.5499 12.7498C11.4 11.8499 10.3501 13.9498 10.3501 13.9498C10.3501 13.9498 10.6501 11.5499 7.50021 10.4999C4.50035 9.59991 2.70043 12.4498 2.55043 14.0998C2.25045 17.8497 5.5503 22.0496 6.75025 23.5496C6.90024 23.9996 7.35022 23.9996 7.8002 23.9996C9.60012 23.5496 14.6999 21.8996 16.6498 18.5997C17.3998 16.9497 17.5498 13.6498 14.5499 12.7498Z" fill="url(#paint3_linear_32_2477)"/>
<path fill-rule="evenodd" clip-rule="evenodd" d="M14.5499 12.7498C11.4 11.8499 10.3501 13.9498 10.3501 13.9498C10.3501 13.9498 10.6501 11.5499 7.50021 10.4999C4.50035 9.59991 2.70043 12.4498 2.55043 14.0998C2.25045 17.8497 5.5503 22.0496 6.75025 23.5496C6.90024 23.9996 7.35022 23.9996 7.8002 23.9996C9.60012 23.5496 14.6999 21.8996 16.6498 18.5997C17.3998 16.9497 17.5498 13.6498 14.5499 12.7498Z" fill="url(#paint4_radial_32_2477)"/>
<path fill-rule="evenodd" clip-rule="evenodd" d="M14.5499 12.7498C11.4 11.8499 10.3501 13.9498 10.3501 13.9498C10.3501 13.9498 10.6501 11.5499 7.50021 10.4999C4.50035 9.59991 2.70043 12.4498 2.55043 14.0998C2.25045 17.8497 5.5503 22.0496 6.75025 23.5496C6.90024 23.9996 7.35022 23.9996 7.8002 23.9996C9.60012 23.5496 14.6999 21.8996 16.6498 18.5997C17.3998 16.9497 17.5498 13.6498 14.5499 12.7498Z" fill="url(#paint5_radial_32_2477)"/>
<path fill-rule="evenodd" clip-rule="evenodd" d="M14.5499 12.7498C11.4 11.8499 10.3501 13.9498 10.3501 13.9498C10.3501 13.9498 10.6501 11.5499 7.50021 10.4999C4.50035 9.59991 2.70043 12.4498 2.55043 14.0998C2.25045 17.8497 5.5503 22.0496 6.75025 23.5496C6.90024 23.9996 7.35022 23.9996 7.8002 23.9996C9.60012 23.5496 14.6999 21.8996 16.6498 18.5997C17.3998 16.9497 17.5498 13.6498 14.5499 12.7498Z" fill="url(#paint6_radial_32_2477)"/>
<path fill-rule="evenodd" clip-rule="evenodd" d="M14.5499 12.7498C11.4 11.8499 10.3501 13.9498 10.3501 13.9498C10.3501 13.9498 10.6501 11.5499 7.50021 10.4999C4.50035 9.59991 2.70043 12.4498 2.55043 14.0998C2.25045 17.8497 5.5503 22.0496 6.75025 23.5496C6.90024 23.9996 7.35022 23.9996 7.8002 23.9996C9.60012 23.5496 14.6999 21.8996 16.6498 18.5997C17.3998 16.9497 17.5498 13.6498 14.5499 12.7498Z" fill="url(#paint7_radial_32_2477)"/>
<path fill-rule="evenodd" clip-rule="evenodd" d="M14.5499 12.7498C11.4 11.8499 10.3501 13.9498 10.3501 13.9498C10.3501 13.9498 10.6501 11.5499 7.50021 10.4999C4.50035 9.59991 2.70043 12.4498 2.55043 14.0998C2.25045 17.8497 5.5503 22.0496 6.75025 23.5496C6.90024 23.9996 7.35022 23.9996 7.8002 23.9996C9.60012 23.5496 14.6999 21.8996 16.6498 18.5997C17.3998 16.9497 17.5498 13.6498 14.5499 12.7498Z" fill="url(#paint8_radial_32_2477)"/>
<path fill-rule="evenodd" clip-rule="evenodd" d="M14.5499 12.7498C11.4 11.8499 10.3501 13.9498 10.3501 13.9498C10.3501 13.9498 10.6501 11.5499 7.50021 10.4999C4.50035 9.59991 2.70043 12.4498 2.55043 14.0998C2.25045 17.8497 5.5503 22.0496 6.75025 23.5496C6.90024 23.9996 7.35022 23.9996 7.8002 23.9996C9.60012 23.5496 14.6999 21.8996 16.6498 18.5997C17.3998 16.9497 17.5498 13.6498 14.5499 12.7498Z" fill="url(#paint9_radial_32_2477)"/>
<path fill-rule="evenodd" clip-rule="evenodd" d="M7.20011 14.6997C7.20011 14.6997 7.20011 14.6997 7.20011 14.5497C7.3501 14.3997 7.65009 14.2497 7.80008 14.0997C8.40006 13.6498 8.10007 12.8998 7.3501 13.0498C7.20011 13.0498 5.40019 13.6498 4.20024 13.1998C3.0003 12.7498 2.8503 12.2998 1.95034 11.5498C1.41037 11.0098 0.510408 10.6198 0.0304295 11.1598C-0.0895652 12.8398 0.150417 14.4297 0.660394 15.9297C0.960381 16.4097 1.32037 16.8597 1.80035 17.2497C6.00016 20.5496 9.75 18.7496 9.89999 16.3497C10.05 14.5497 7.80008 14.6997 7.20011 14.6997Z" fill="url(#paint10_radial_32_2477)"/>
<path d="M24 11.9996C23.67 11.2496 22.0201 10.5896 21.4501 11.7296C20.2502 13.9796 19.8002 16.2295 16.9503 16.5295C16.0504 16.6795 14.8504 16.3795 13.9505 16.2295C13.2005 16.0795 13.0505 16.9795 13.6505 17.4295C13.9505 17.5795 14.1004 17.7295 14.4004 17.8795V18.0295C13.6505 18.0295 11.5506 18.3295 12.0005 20.1294C12.5105 22.2294 17.0103 22.9493 20.4602 20.5194C22.6501 18.3295 24 15.3295 24 11.9996Z" fill="url(#paint11_radial_32_2477)"/>
<path fill-rule="evenodd" clip-rule="evenodd" d="M15.3599 1.88987C14.6399 2.00986 14.6099 2.96984 15.1799 2.96984C16.6798 2.96984 17.9698 3.50983 18.5998 3.98982C19.1097 4.31981 19.3497 3.65982 19.1097 3.32983C18.3298 2.36986 16.6198 1.67987 15.3599 1.88987Z" fill="url(#paint12_radial_32_2477)"/>
<path fill-rule="evenodd" clip-rule="evenodd" d="M8.55069 1.88987C9.27066 2.00986 9.30066 2.96984 8.73068 2.96984C7.23075 2.96984 5.9408 3.50983 5.31083 3.98982C4.80085 4.31981 4.56087 3.65982 4.80086 3.32983C5.61082 2.36986 7.29075 1.67987 8.55069 1.88987Z" fill="url(#paint13_radial_32_2477)"/>
<path fill-rule="evenodd" clip-rule="evenodd" d="M15.0889 6.20981C15.0889 7.25979 15.6888 7.55978 16.5888 7.70977C17.4888 7.85977 18.2387 7.40978 18.2387 6.20981C18.2387 5.30983 17.7887 4.10986 16.5888 4.10986C15.5388 4.10986 15.0889 5.30983 15.0889 6.20981Z" fill="url(#paint14_radial_32_2477)"/>
<path d="M16.1994 5.97005C16.5142 5.97005 16.7693 5.71486 16.7693 5.40006C16.7693 5.08527 16.5142 4.83008 16.1994 4.83008C15.8846 4.83008 15.6294 5.08527 15.6294 5.40006C15.6294 5.71486 15.8846 5.97005 16.1994 5.97005Z" fill="#4E506A"/>
<path fill-rule="evenodd" clip-rule="evenodd" d="M15.0889 6.20981C15.0889 7.25979 15.6888 7.55978 16.5888 7.70977C17.4888 7.85977 18.2387 7.40978 18.2387 6.20981C18.2387 5.30983 17.7887 4.10986 16.5888 4.10986C15.5388 4.10986 15.0889 5.30983 15.0889 6.20981Z" fill="url(#paint15_radial_32_2477)"/>
<path d="M16.1994 5.97005C16.5142 5.97005 16.7693 5.71486 16.7693 5.40006C16.7693 5.08527 16.5142 4.83008 16.1994 4.83008C15.8846 4.83008 15.6294 5.08527 15.6294 5.40006C15.6294 5.71486 15.8846 5.97005 16.1994 5.97005Z" fill="#4E506A"/>
<path fill-rule="evenodd" clip-rule="evenodd" d="M8.81954 6.20981C8.81954 7.25979 8.21956 7.55978 7.3196 7.70977C6.41964 7.85977 5.66968 7.40978 5.66968 6.20981C5.66968 5.30983 6.11966 4.10986 7.3196 4.10986C8.36956 4.10986 8.81954 5.30983 8.81954 6.20981Z" fill="url(#paint16_radial_32_2477)"/>
<path fill-rule="evenodd" clip-rule="evenodd" d="M8.81954 6.20981C8.81954 7.25979 8.21956 7.55978 7.3196 7.70977C6.41964 7.85977 5.66968 7.40978 5.66968 6.20981C5.66968 5.30983 6.11966 4.10986 7.3196 4.10986C8.36956 4.10986 8.81954 5.30983 8.81954 6.20981Z" fill="url(#paint17_radial_32_2477)"/>
<path d="M6.59976 5.97005C6.91455 5.97005 7.16973 5.71486 7.16973 5.40006C7.16973 5.08527 6.91455 4.83008 6.59976 4.83008C6.28497 4.83008 6.02979 5.08527 6.02979 5.40006C6.02979 5.71486 6.28497 5.97005 6.59976 5.97005Z" fill="#4E506A"/>
<defs>
<radialGradient id="paint0_radial_32_2477" cx="0" cy="0" r="1" gradientUnits="userSpaceOnUse" gradientTransform="translate(9.53887 6.22752) scale(17.9037 17.9041)">
<stop stop-color="#FFED85"/>
<stop offset="0.1898" stop-color="#FFE180"/>
<stop offset="0.5295" stop-color="#FFC273"/>
<stop offset="0.9773" stop-color="#FF915E"/>
<stop offset="1" stop-color="#FF8E5D"/>
</radialGradient>
<radialGradient id="paint1_radial_32_2477" cx="0" cy="0" r="1" gradientUnits="userSpaceOnUse" gradientTransform="translate(9.58597 7.07488) scale(11.145 11.1452)">
<stop stop-color="#FFEA84" stop-opacity="0"/>
<stop offset="1" stop-color="#F08423" stop-opacity="0.34"/>
</radialGradient>
<linearGradient id="paint2_linear_32_2477" x1="11.9999" y1="9.90939" x2="11.9999" y2="8.52193" gradientUnits="userSpaceOnUse">
<stop stop-color="#3F1D04"/>
<stop offset="1" stop-color="#7E2307"/>
</linearGradient>
<linearGradient id="paint3_linear_32_2477" x1="10.1172" y1="14.6235" x2="7.07127" y2="24.4365" gradientUnits="userSpaceOnUse">
<stop stop-color="#F34462"/>
<stop offset="1" stop-color="#CC0820"/>
</linearGradient>
<radialGradient id="paint4_radial_32_2477" cx="0" cy="0" r="1" gradientUnits="userSpaceOnUse" gradientTransform="translate(13.2798 16.4182) rotate(20.3932) scale(3.94925 3.94931)">
<stop stop-color="#FF7091" stop-opacity="0.7"/>
<stop offset="1" stop-color="#FE6D8E" stop-opacity="0"/>
</radialGradient>
<radialGradient id="paint5_radial_32_2477" cx="0" cy="0" r="1" gradientUnits="userSpaceOnUse" gradientTransform="translate(6.42164 14.4289) rotate(20.3932) scale(3.94925 3.94931)">
<stop stop-color="#FF7091" stop-opacity="0.7"/>
<stop offset="1" stop-color="#FE6D8E" stop-opacity="0"/>
</radialGradient>
<radialGradient id="paint6_radial_32_2477" cx="0" cy="0" r="1" gradientUnits="userSpaceOnUse" gradientTransform="translate(5.99435 17.6636) rotate(101.61) scale(3.39093 4.66929)">
<stop stop-color="#9C0600"/>
<stop offset="1" stop-color="#9C0600" stop-opacity="0"/>
</radialGradient>
<radialGradient id="paint7_radial_32_2477" cx="0" cy="0" r="1" gradientUnits="userSpaceOnUse" gradientTransform="translate(17.1391 18.0011) rotate(30.6337) scale(2.04272 2.5637)">
<stop stop-color="#9C0600" stop-opacity="0.5"/>
<stop offset="1" stop-color="#9C0600" stop-opacity="0"/>
</radialGradient>
<radialGradient id="paint8_radial_32_2477" cx="0" cy="0" r="1" gradientUnits="userSpaceOnUse" gradientTransform="translate(3.09606 13.68) rotate(-20.1592) scale(1.77035 2.28141)">
<stop stop-color="#9C0600" stop-opacity="0.5"/>
<stop offset="1" stop-color="#9C0600" stop-opacity="0"/>
</radialGradient>
<radialGradient id="paint9_radial_32_2477" cx="0" cy="0" r="1" gradientUnits="userSpaceOnUse" gradientTransform="translate(13.4225 20.8826) rotate(34.072) scale(2.38316 2.58114)">
<stop stop-color="#9C0600" stop-opacity="0.999"/>
<stop offset="1" stop-color="#9C0600" stop-opacity="0"/>
</radialGradient>
<radialGradient id="paint10_radial_32_2477" cx="0" cy="0" r="1" gradientUnits="userSpaceOnUse" gradientTransform="translate(-0.238479 11.2058) scale(10.6455 10.6457)">
<stop stop-color="#FF9F64"/>
<stop offset="1" stop-color="#FFE682"/>
</radialGradient>
<radialGradient id="paint11_radial_32_2477" cx="0" cy="0" r="1" gradientUnits="userSpaceOnUse" gradientTransform="translate(23.0966 12.4847) scale(13.6926 13.6929)">
<stop stop-color="#FF9F64"/>
<stop offset="1" stop-color="#FFE682"/>
</radialGradient>
<radialGradient id="paint12_radial_32_2477" cx="0" cy="0" r="1" gradientUnits="userSpaceOnUse" gradientTransform="translate(16.8698 2.44928) rotate(-81.4376) scale(0.687093 3.2277)">
<stop stop-color="#E38200"/>
<stop offset="1" stop-color="#D16C00"/>
</radialGradient>
<radialGradient id="paint13_radial_32_2477" cx="0" cy="0" r="1" gradientUnits="userSpaceOnUse" gradientTransform="translate(7.05229 2.44934) rotate(-98.5624) scale(0.687093 3.2277)">
<stop stop-color="#E38200"/>
<stop offset="1" stop-color="#D16C00"/>
</radialGradient>
<radialGradient id="paint14_radial_32_2477" cx="0" cy="0" r="1" gradientUnits="userSpaceOnUse" gradientTransform="translate(16.6114 6.46569) rotate(-90) scale(2.7894 2.7895)">
<stop stop-color="#3B426A"/>
<stop offset="0.9792" stop-color="#191A33"/>
</radialGradient>
<radialGradient id="paint15_radial_32_2477" cx="0" cy="0" r="1" gradientUnits="userSpaceOnUse" gradientTransform="translate(16.6114 6.46569) rotate(-90) scale(2.7894 2.7895)">
<stop stop-color="#3B426A"/>
<stop offset="0.9792" stop-color="#191A33"/>
</radialGradient>
<radialGradient id="paint16_radial_32_2477" cx="0" cy="0" r="1" gradientUnits="userSpaceOnUse" gradientTransform="translate(7.30853 6.46569) rotate(-90) scale(2.7894 2.7895)">
<stop stop-color="#3B426A"/>
<stop offset="0.9792" stop-color="#191A33"/>
</radialGradient>
<radialGradient id="paint17_radial_32_2477" cx="0" cy="0" r="1" gradientUnits="userSpaceOnUse" gradientTransform="translate(7.30853 6.46569) rotate(-90) scale(2.7894 2.7895)">
<stop stop-color="#3B426A"/>
<stop offset="0.9792" stop-color="#191A33"/>
</radialGradient>
</defs>
</svg>
