<svg width="20" height="20" viewBox="0 0 20 20" fill="none" xmlns="http://www.w3.org/2000/svg">
<path d="M0.943553 10.0614L0.943562 10.0614L0.941106 10.059C0.668146 9.7898 0.5 9.41673 0.5 9V2C0.5 1.17114 1.17114 0.5 2 0.5H8.99953C9.39766 0.500821 9.7794 0.658585 10.0619 0.939056C10.0622 0.939257 10.0624 0.939457 10.0626 0.939658L19.0564 9.93355C19.3322 10.2093 19.5 10.5838 19.5 11C19.5 11.4103 19.3328 11.7858 19.0601 12.0628C19.0597 12.0632 19.0594 12.0635 19.059 12.0639L12.0614 19.0614C11.7919 19.331 11.4127 19.5 11 19.5C10.5886 19.5 10.2141 19.332 9.94355 19.0614L0.943553 10.0614ZM1.5 3.5C1.5 4.60614 2.39386 5.5 3.5 5.5C4.60614 5.5 5.5 4.60614 5.5 3.5C5.5 2.39386 4.60614 1.5 3.5 1.5C2.39386 1.5 1.5 2.39386 1.5 3.5Z" fill="#FFC733" stroke="#FFC733"/>
</svg>
