<svg width="48" height="48" viewBox="0 0 48 48" fill="none" xmlns="http://www.w3.org/2000/svg">
<g clip-path="url(#clip0_32_3066)">
<path d="M34.6149 34.711H18.24C17.7854 34.711 17.3494 34.5304 17.0279 34.2089C16.7064 33.8874 16.5258 33.4513 16.5258 32.9967C16.5258 32.542 16.7064 32.106 17.0279 31.7845C17.3494 31.463 17.7854 31.2824 18.24 31.2824H34.6149C35.0696 31.2824 35.5056 31.463 35.8271 31.7845C36.1486 32.106 36.3292 32.542 36.3292 32.9967C36.3292 33.4513 36.1486 33.8874 35.8271 34.2089C35.5056 34.5304 35.0696 34.711 34.6149 34.711ZM44.0503 34.711H43.6389C43.1842 34.711 42.7482 34.5304 42.4267 34.2089C42.1052 33.8874 41.9246 33.4513 41.9246 32.9967C41.9246 32.542 42.1052 32.106 42.4267 31.7845C42.7482 31.463 43.1842 31.2824 43.6389 31.2824H44.0503C44.1631 31.2842 44.2752 31.2636 44.3799 31.2216C44.4847 31.1797 44.58 31.1174 44.6605 31.0383C44.7409 30.9591 44.8047 30.8648 44.8483 30.7607C44.8919 30.6566 44.9143 30.5449 44.9143 30.4321V24.5487C44.9138 24.3558 44.8486 24.1686 44.7293 24.017C44.61 23.8654 44.4434 23.758 44.256 23.7121H34.1486C33.0125 23.7121 31.9228 23.2617 31.1182 22.4597C30.3135 21.6576 29.8597 20.5693 29.856 19.4332V10.2447C29.8579 10.1325 29.8372 10.0211 29.7951 9.91711C29.753 9.81311 29.6905 9.71863 29.6111 9.6393C29.5318 9.55998 29.4373 9.49741 29.3333 9.45534C29.2293 9.41326 29.1179 9.39254 29.0058 9.39439H8.80462C8.34996 9.39439 7.91393 9.21378 7.59243 8.89229C7.27094 8.5708 7.09033 8.13476 7.09033 7.68011C7.09033 7.22545 7.27094 6.78941 7.59243 6.46792C7.91393 6.14643 8.34996 5.96582 8.80462 5.96582H29.0058C29.5677 5.96582 30.1241 6.0765 30.6432 6.29153C31.1623 6.50656 31.634 6.82174 32.0314 7.21907C32.4287 7.6164 32.7439 8.08809 32.9589 8.60723C33.1739 9.12636 33.2846 9.68277 33.2846 10.2447V19.4058C33.2846 19.5186 33.307 19.6303 33.3506 19.7344C33.3942 19.8385 33.4581 19.9328 33.5385 20.012C33.6189 20.0911 33.7143 20.1534 33.819 20.1954C33.9238 20.2373 34.0358 20.2579 34.1486 20.2561H44.0503C44.3634 20.2602 44.6755 20.2923 44.9829 20.3521L45.2846 20.4481C46.1726 20.7077 46.9517 21.2499 47.5036 21.9924C48.0556 22.735 48.3502 23.6372 48.3429 24.5624V30.4458C48.3357 31.5795 47.8802 32.6643 47.076 33.4634C46.2718 34.2625 45.1841 34.711 44.0503 34.711Z" fill="#F57021"/>
<path d="M44.6401 23.7668C44.2876 23.7667 43.9439 23.6571 43.6565 23.4532C43.369 23.2493 43.152 22.9611 43.0355 22.6285L40.2926 15.0034C40.2188 14.9005 40.1223 14.816 40.0105 14.7565C39.8987 14.6971 39.7747 14.6642 39.6481 14.6605H31.5429C31.0883 14.6605 30.6522 14.4799 30.3308 14.1584C30.0093 13.8369 29.8286 13.4009 29.8286 12.9462C29.8286 12.4916 30.0093 12.0555 30.3308 11.734C30.6522 11.4125 31.0883 11.2319 31.5429 11.2319H39.6481C40.4081 11.2349 41.1532 11.4428 41.8049 11.8339C42.4566 12.2249 42.9907 12.7845 43.3509 13.4536C43.3932 13.5333 43.4298 13.6158 43.4606 13.7005L46.2035 21.4765C46.3535 21.9058 46.3281 22.3769 46.133 22.7877C45.9379 23.1985 45.5887 23.5158 45.1612 23.6708C44.9922 23.7245 44.8171 23.7568 44.6401 23.7668ZM39.1269 42.0342C37.8928 42.0342 36.6863 41.6683 35.6602 40.9826C34.634 40.2969 33.8342 39.3224 33.3619 38.1822C32.8896 37.042 32.7661 35.7873 33.0068 34.5769C33.2476 33.3664 33.8419 32.2546 34.7146 31.3819C35.5873 30.5092 36.6991 29.9149 37.9096 29.6741C39.12 29.4333 40.3747 29.5569 41.5149 30.0292C42.6551 30.5015 43.6296 31.3013 44.3153 32.3275C45.001 33.3536 45.3669 34.5601 45.3669 35.7942C45.3669 37.4492 44.7095 39.0363 43.5393 40.2066C42.3691 41.3768 40.7819 42.0342 39.1269 42.0342ZM39.1269 32.9828C38.5682 32.9692 38.018 33.1224 37.5468 33.4229C37.0755 33.7234 36.7045 34.1576 36.4811 34.67C36.2578 35.1823 36.1922 35.7497 36.2929 36.2995C36.3935 36.8493 36.6557 37.3566 37.046 37.7567C37.4363 38.1567 37.937 38.4314 38.4842 38.5456C39.0313 38.6597 39.6001 38.6082 40.1178 38.3976C40.6355 38.1869 41.0787 37.8268 41.3908 37.3631C41.7029 36.8994 41.8696 36.3532 41.8698 35.7942C41.87 35.0603 41.5832 34.3554 41.0707 33.8301C40.5582 33.3048 39.8606 33.0007 39.1269 32.9828ZM13.7144 42.0342C12.4802 42.0342 11.2738 41.6683 10.2476 40.9826C9.22145 40.2969 8.42165 39.3224 7.94936 38.1822C7.47707 37.042 7.3535 35.7873 7.59427 34.5769C7.83504 33.3664 8.42934 32.2546 9.30202 31.3819C10.1747 30.5092 11.2866 29.9149 12.497 29.6741C13.7074 29.4333 14.9621 29.5569 16.1023 30.0292C17.2425 30.5015 18.2171 31.3013 18.9027 32.3275C19.5884 33.3536 19.9544 34.5601 19.9544 35.7942C19.9544 37.4492 19.2969 39.0363 18.1267 40.2066C16.9565 41.3768 15.3693 42.0342 13.7144 42.0342ZM13.7144 32.9828C13.1583 32.9828 12.6148 33.1477 12.1524 33.4566C11.6901 33.7655 11.3297 34.2046 11.1169 34.7183C10.9042 35.2321 10.8485 35.7973 10.957 36.3427C11.0654 36.8881 11.3332 37.389 11.7264 37.7822C12.1196 38.1754 12.6205 38.4431 13.1659 38.5516C13.7112 38.6601 14.2765 38.6044 14.7903 38.3916C15.304 38.1789 15.7431 37.8185 16.052 37.3562C16.3609 36.8938 16.5258 36.3503 16.5258 35.7942C16.5258 35.0486 16.2296 34.3335 15.7023 33.8062C15.1751 33.279 14.46 32.9828 13.7144 32.9828Z" fill="#F57021"/>
<path d="M31.5429 34.711C31.3172 34.7128 31.0935 34.6698 30.8847 34.5842C30.6759 34.4987 30.4861 34.3725 30.3266 34.213C30.167 34.0534 30.0408 33.8637 29.9553 33.6549C29.8698 33.4461 29.8267 33.2224 29.8286 32.9967V18.007C29.8286 17.5524 30.0092 17.1163 30.3307 16.7948C30.6522 16.4733 31.0882 16.2927 31.5429 16.2927C31.9975 16.2927 32.4335 16.4733 32.755 16.7948C33.0765 17.1163 33.2571 17.5524 33.2571 18.007V32.9967C33.259 33.2224 33.2159 33.4461 33.1304 33.6549C33.0449 33.8637 32.9187 34.0534 32.7591 34.213C32.5996 34.3725 32.4098 34.4987 32.201 34.5842C31.9922 34.6698 31.7685 34.7128 31.5429 34.711ZM13.9748 18.0619H2.74285C2.28819 18.0619 1.85216 17.8813 1.53067 17.5598C1.20918 17.2383 1.02856 16.8022 1.02856 16.3476C1.02856 15.8929 1.20918 15.4569 1.53067 15.1354C1.85216 14.8139 2.28819 14.6333 2.74285 14.6333H13.9748C14.4295 14.6333 14.8655 14.8139 15.187 15.1354C15.5085 15.4569 15.6891 15.8929 15.6891 16.3476C15.6891 16.8022 15.5085 17.2383 15.187 17.5598C14.8655 17.8813 14.4295 18.0619 13.9748 18.0619ZM16.0869 25.7144H10.2171C9.76248 25.7144 9.32644 25.5338 9.00495 25.2123C8.68346 24.8909 8.50285 24.4548 8.50285 24.0002C8.50285 23.5455 8.68346 23.1095 9.00495 22.788C9.32644 22.4665 9.76248 22.2859 10.2171 22.2859H16.0869C16.5415 22.2859 16.9775 22.4665 17.299 22.788C17.6205 23.1095 17.8011 23.5455 17.8011 24.0002C17.8011 24.4548 17.6205 24.8909 17.299 25.2123C16.9775 25.5338 16.5415 25.7144 16.0869 25.7144Z" fill="#F57021"/>
</g>
<defs>
<clipPath id="clip0_32_3066">
<rect width="48" height="48" fill="white"/>
</clipPath>
</defs>
</svg>
