<svg width="48" height="48" viewBox="0 0 48 48" fill="none" xmlns="http://www.w3.org/2000/svg">
<path d="M29.54 11.74C29.9993 12.0007 30.543 12.0693 31.0526 11.9306C31.5621 11.792 31.9962 11.4575 32.26 11C32.4784 10.6147 32.8184 10.3128 33.2268 10.1416C33.6352 9.97034 34.0889 9.9395 34.5167 10.0539C34.9445 10.1683 35.3223 10.4214 35.5907 10.7736C35.8592 11.1258 36.0031 11.5572 36 12C36 12.5304 35.7893 13.0391 35.4142 13.4142C35.0392 13.7893 34.5305 14 34 14C33.4696 14 32.9609 14.2107 32.5858 14.5858C32.2107 14.9609 32 15.4696 32 16C32 16.5304 32.2107 17.0391 32.5858 17.4142C32.9609 17.7893 33.4696 18 34 18C35.0531 17.9993 36.0874 17.7215 36.9991 17.1945C37.9108 16.6674 38.6677 15.9097 39.1938 14.9975C39.7199 14.0853 39.9966 13.0507 39.9962 11.9976C39.9958 10.9445 39.7182 9.91014 39.1914 8.99833C38.6646 8.08653 37.907 7.32944 36.9949 6.80313C36.0828 6.27682 35.0483 5.99983 33.9952 6C32.9422 6.00017 31.9077 6.27749 30.9958 6.80409C30.0838 7.33069 29.3266 8.08802 28.8 9C28.6678 9.22827 28.582 9.48044 28.5477 9.742C28.5133 10.0036 28.531 10.2693 28.5998 10.524C28.6686 10.7787 28.7871 11.0172 28.9484 11.2259C29.1098 11.4346 29.3109 11.6093 29.54 11.74ZM38.14 26C37.615 25.9319 37.0845 26.0746 36.6646 26.3971C36.2447 26.7195 35.9697 27.1952 35.9 27.72C35.4803 31.1103 33.8355 34.2302 31.2753 36.492C28.7151 38.7538 25.4162 40.0015 22 40H10.82L12.12 38.7C12.4925 38.3253 12.7016 37.8184 12.7016 37.29C12.7016 36.7616 12.4925 36.2547 12.12 35.88C10.1699 33.9222 8.84281 31.4312 8.30582 28.7205C7.76884 26.0099 8.04601 23.201 9.10243 20.6477C10.1589 18.0943 11.9473 15.9106 14.2424 14.3718C16.5376 12.8329 19.2368 12.0077 22 12C22.5305 12 23.0392 11.7893 23.4142 11.4142C23.7893 11.0391 24 10.5304 24 10C24 9.46957 23.7893 8.96086 23.4142 8.58579C23.0392 8.21071 22.5305 8 22 8C18.6185 8.01411 15.3093 8.98047 12.4516 10.7884C9.59393 12.5963 7.3033 15.1726 5.84216 18.2222C4.38103 21.2718 3.80848 24.6714 4.19013 28.0313C4.57177 31.3913 5.89216 34.5758 8.00003 37.22L4.58003 40.58C4.30252 40.8612 4.11453 41.2184 4.03978 41.6064C3.96503 41.9944 4.00688 42.3958 4.16003 42.76C4.31007 43.1252 4.56487 43.4379 4.89231 43.6586C5.21975 43.8792 5.60518 43.998 6.00003 44H22C26.3829 44.0006 30.6155 42.402 33.9037 39.5041C37.1918 36.6063 39.3097 32.6082 39.86 28.26C39.8966 27.9985 39.8811 27.7324 39.8143 27.4769C39.7475 27.2215 39.6307 26.9818 39.4708 26.7717C39.3109 26.5616 39.111 26.3852 38.8826 26.2528C38.6542 26.1203 38.4018 26.0344 38.14 26ZM34.76 20.14C34.3959 19.9789 33.992 19.9302 33.6 20L33.24 20.12L32.88 20.3L32.58 20.56C32.4001 20.7443 32.2575 20.9616 32.16 21.2C32.0418 21.4495 31.9868 21.7242 32 22C31.9942 22.2667 32.0418 22.5319 32.14 22.78C32.2435 23.02 32.393 23.2375 32.58 23.42C32.7669 23.6054 32.9885 23.752 33.2322 23.8515C33.4759 23.9511 33.7368 24.0015 34 24C34.5305 24 35.0392 23.7893 35.4142 23.4142C35.7893 23.0391 36 22.5304 36 22C36.0068 21.7376 35.952 21.4774 35.84 21.24C35.6251 20.7594 35.2406 20.3749 34.76 20.16V20.14Z" fill="#F57021"/>
</svg>
