<svg width="48" height="48" viewBox="0 0 48 48" fill="none" xmlns="http://www.w3.org/2000/svg">
<g clip-path="url(#clip0_32_3089)">
<path d="M48 24.0002C48 35.2176 38.9217 44.348 27.7565 44.348C23.6348 44.348 19.6696 43.0958 16.2783 40.8002C15.3391 40.1219 15.0783 38.8697 15.7565 37.8784C16.4348 36.9393 17.687 36.6784 18.6783 37.3567C21.3391 39.1828 24.5217 40.1741 27.7565 40.1741C36.6261 40.1741 43.8261 32.9219 43.8261 24.0002C43.8261 15.0784 36.6261 7.82626 27.7565 7.82626C19.0957 7.82626 12 14.7654 11.687 23.4263L16.5391 18.5219C17.3739 17.6871 18.6783 17.6871 19.513 18.5219C20.3478 19.3567 20.3478 20.661 19.513 21.4958L11.5304 29.4784C11.113 29.8958 10.5913 30.1045 10.0696 30.1045C9.49565 30.1045 8.97391 29.8958 8.6087 29.4784L0.626087 21.4436C-0.208696 20.6089 -0.208696 19.3045 0.626087 18.4697C1.46087 17.635 2.76522 17.635 3.6 18.4697L7.56522 22.4871C8.29565 12.0002 17.0609 3.65234 27.7565 3.65234C38.9217 3.65234 48 12.7828 48 24.0002ZM27.6522 12.1567C26.5043 12.1567 25.5652 13.0958 25.5652 14.2436V24.0002C25.5652 24.5741 25.8261 25.0958 26.2435 25.461L30.7304 29.948C31.1478 30.3654 31.6696 30.5741 32.2435 30.5741C32.7652 30.5741 33.3391 30.3654 33.7043 29.948C34.5391 29.1132 34.487 27.8089 33.6522 26.9741L29.7391 23.1132V14.2436C29.7391 13.0958 28.8 12.1567 27.6522 12.1567Z" fill="#F57021"/>
</g>
<defs>
<clipPath id="clip0_32_3089">
<rect width="48" height="48" fill="white"/>
</clipPath>
</defs>
</svg>
