<svg width="48" height="48" viewBox="0 0 48 48" fill="none" xmlns="http://www.w3.org/2000/svg">
<g clip-path="url(#clip0_32_3073)">
<path d="M17.2019 32.2689H21.0869L23.5839 16.7319H19.4219L17.2019 32.2689Z" fill="#F57021"/>
<path d="M13.873 16.4538L10.266 27.5518L9.58499 24.4258C7.64299 19.7088 4.31299 17.7668 4.31299 17.7668L7.76899 31.9908H11.931L17.758 16.4528H13.873V16.4538ZM44.948 16.4538H40.786L34.404 31.9918H38.288L39.12 29.7718H44.114L44.669 31.9918H48L44.948 16.4538ZM39.954 26.9968L42.174 21.1708L43.284 26.9968H39.954ZM28.855 20.8928C28.855 20.0608 29.41 19.2278 31.352 19.2278C32.739 19.2278 34.127 20.3378 34.127 20.3378L34.959 17.0088C34.959 17.0088 33.017 16.1768 31.352 16.1768C27.19 16.1768 25.248 18.3968 25.248 20.8938C25.248 25.8878 30.797 25.0558 30.797 27.5528C30.797 28.1078 30.52 28.9398 28.3 28.9398C26.08 28.9398 24.416 28.1078 24.416 28.1078L23.861 31.4368C23.861 31.4368 25.248 32.2688 28.023 32.2688C30.52 32.5458 34.405 30.3268 34.405 26.9968C34.405 23.1128 28.855 22.8358 28.855 20.8928Z" fill="#F57021"/>
<path d="M9.711 25.0549L8.324 18.1189C8.324 18.1189 7.769 16.7319 6.104 16.7319C4.439 16.7319 0 16.7319 0 16.7319C0 16.7319 8.046 19.2289 9.711 25.0549Z" fill="#FF9800"/>
</g>
<defs>
<clipPath id="clip0_32_3073">
<rect width="48" height="48" fill="white"/>
</clipPath>
</defs>
</svg>
